<?xml version="1.0" encoding="UTF-8" standalone="no"?>
<!-- Created with Inkscape (http://www.inkscape.org/) -->

<svg
   version="1.1"
   id="svg2"
   width="256"
   height="217.58099"
   viewBox="0 0 256 217.58099"
   sodipodi:docname="utfLogo.svg"
   inkscape:version="1.1.1 (3bf5ae0d25, 2021-09-20)"
   inkscape:export-filename="X:\repos\pradoplucas\certsProject\static\assets\images\logo\image3.png"
   inkscape:export-xdpi="96"
   inkscape:export-ydpi="96"
   xmlns:inkscape="http://www.inkscape.org/namespaces/inkscape"
   xmlns:sodipodi="http://sodipodi.sourceforge.net/DTD/sodipodi-0.dtd"
   xmlns="http://www.w3.org/2000/svg"
   xmlns:svg="http://www.w3.org/2000/svg">
  <defs
     id="defs6">
    <clipPath
       clipPathUnits="userSpaceOnUse"
       id="clipPath1361">
      <rect
         style="mix-blend-mode:luminosity;fill:none;fill-opacity:1;stroke:#000000;stroke-width:2.37272;stroke-linejoin:round;stroke-miterlimit:4;stroke-dasharray:none;stroke-opacity:1;paint-order:markers fill stroke"
         id="rect1363"
         width="665.02649"
         height="336.95236"
         x="-2.8359442"
         y="4.8666916" />
    </clipPath>
    <clipPath
       clipPathUnits="userSpaceOnUse"
       id="clipPath2278">
      <rect
         style="fill:none;stroke:#000000;stroke-width:0.503739;stroke-linejoin:round;stroke-miterlimit:4;stroke-dasharray:none;stroke-opacity:1;paint-order:normal"
         id="rect2280"
         width="658.16339"
         height="328.28583"
         x="1.4435545"
         y="8.5070658" />
    </clipPath>
    <clipPath
       clipPathUnits="userSpaceOnUse"
       id="clipPath2278-8">
      <rect
         style="fill:none;stroke:#000000;stroke-width:0.503739;stroke-linejoin:round;stroke-miterlimit:4;stroke-dasharray:none;stroke-opacity:1;paint-order:normal"
         id="rect2280-8"
         width="658.16339"
         height="328.28583"
         x="1.4435545"
         y="8.5070658" />
    </clipPath>
    <clipPath
       clipPathUnits="userSpaceOnUse"
       id="clipPath2278-9">
      <rect
         style="fill:none;stroke:#000000;stroke-width:0.503739;stroke-linejoin:round;stroke-miterlimit:4;stroke-dasharray:none;stroke-opacity:1;paint-order:normal"
         id="rect2280-2"
         width="658.16339"
         height="328.28583"
         x="1.4435545"
         y="8.5070658" />
    </clipPath>
    <clipPath
       clipPathUnits="userSpaceOnUse"
       id="clipPath2278-6">
      <rect
         style="fill:none;stroke:#000000;stroke-width:0.503739;stroke-linejoin:round;stroke-miterlimit:4;stroke-dasharray:none;stroke-opacity:1;paint-order:normal"
         id="rect2280-9"
         width="658.16339"
         height="328.28583"
         x="1.4435545"
         y="8.5070658" />
    </clipPath>
  </defs>
  <sodipodi:namedview
     id="namedview4"
     pagecolor="#505050"
     bordercolor="#ffffff"
     borderopacity="1"
     inkscape:pageshadow="0"
     inkscape:pageopacity="0"
     inkscape:pagecheckerboard="1"
     showgrid="false"
     inkscape:zoom="0.54687501"
     inkscape:cx="234.97143"
     inkscape:cy="229.48571"
     inkscape:window-width="1536"
     inkscape:window-height="841"
     inkscape:window-x="1358"
     inkscape:window-y="-8"
     inkscape:window-maximized="1"
     inkscape:current-layer="g8"
     fit-margin-top="0"
     fit-margin-left="0"
     fit-margin-right="0"
     fit-margin-bottom="0" />
  <g
     inkscape:groupmode="layer"
     inkscape:label="Image"
     id="g8">
    <path
       style="fill:#ffffff;fill-opacity:1;stroke:#000000;stroke-width:5.11473;stroke-miterlimit:4;stroke-dasharray:none;stroke-opacity:1"
       d="m 11.027497,378.25503 c -3.69273,-2.00609 -4.8560701,-6.23027 -4.8560701,-17.63282 v -9.85078 h 3.0000001 3 v 9.80887 c 0,6.57592 0.4377,10.40746 1.32799,11.625 1.46302,2.00081 6.20083,2.43731 7.90944,0.7287 0.59808,-0.59808 1.29832,-5.82933 1.55608,-11.625 0.45747,-10.28603 0.5252,-10.53757 2.83757,-10.53757 2.35535,0 2.36892,0.0663 2.36892,11.56574 0,6.36116 -0.4405,12.38883 -0.97889,13.39482 -2.00671,3.74957 -11.25128,5.19246 -16.16504,2.52304 z m 144.643923,0.57104 c -2.51748,-1.03038 -5.0696,-3.9171 -5.91169,-6.68674 -0.54642,-1.79718 -0.17415,-2.20169 2.36986,-2.57507 2.2867,-0.33561 3.15856,-4.2e-4 3.59769,1.38317 1.23907,3.90398 8.50367,4.7172 9.88904,1.107 0.89866,-2.34187 -1.12216,-4.05268 -5.7008,-4.82623 -6.83289,-1.15441 -11.10862,-6.73731 -9.12292,-11.91197 1.48009,-3.85705 10.47931,-5.82303 15.7215,-3.43453 2.23547,1.01855 4.65732,4.62574 4.65732,6.93678 0,1.87749 -5.50027,0.98279 -6.80536,-1.10698 -1.59496,-2.55395 -7.49687,-2.39856 -7.9906,0.21038 -0.23404,1.23669 1.33089,2.19728 6.24233,3.8317 6.93929,2.30925 9.56836,4.78908 9.53139,8.99036 -0.058,6.58862 -9.18687,11.06624 -16.47776,8.08213 z m 204.81472,-0.5183 c -4.33104,-1.8837 -6.72534,-6.74199 -6.67748,-13.54937 0.0462,-6.56804 1.39364,-9.42524 5.67659,-12.03674 4.65333,-2.83734 10.79768,-2.56873 14.60945,0.63866 3.18202,2.67749 4.14788,6.41111 1.65852,6.41111 -0.78002,0 -2.07088,0.25045 -2.86858,0.55656 -0.90023,0.34545 -1.64984,-0.20624 -1.97626,-1.45446 -0.73152,-2.79734 -5.14114,-3.72251 -8.1975,-1.7199 -4.86616,3.18842 -4.09084,14.69726 1.12367,16.67982 3.33875,1.26939 3.17646,1.32122 6.28599,-2.00754 1.97268,-2.11177 3.36002,-2.7864 4.90121,-2.38337 6.03853,1.57911 -1.83725,10.42103 -9.16542,10.28975 -1.20169,-0.0215 -3.61828,-0.66256 -5.37019,-1.42452 z m 54.55989,-0.5405 c -6.012,-3.17692 -8.51058,-12.14463 -5.43478,-19.50606 2.96272,-7.09077 12.93336,-9.73457 19.64773,-5.20976 4.38396,2.95434 5.88041,6.05694 5.89397,12.21998 0.0253,11.48441 -10.10594,17.78065 -20.10692,12.49584 z m 12.35316,-6.35234 c 2.68144,-3.32665 2.32691,-10.17974 -0.68231,-13.18895 -4.64131,-4.64132 -10.76004,-2.15808 -12.08501,4.90461 -1.66462,8.8732 7.4996,14.81959 12.76732,8.28434 z m 41.1728,6.68242 c -1.7047,-0.85039 -3.94254,-2.95911 -4.97299,-4.68604 -2.4071,-4.03406 -2.45001,-13.43049 -0.0779,-17.05084 4.29997,-6.56258 15.22205,-7.47883 20.9439,-1.75698 2.69831,2.69831 3.15437,3.93524 3.46138,9.38786 0.28378,5.0401 -0.0563,6.93366 -1.72259,9.59026 -3.54895,5.65828 -11.34103,7.65394 -17.63183,4.51574 z m 11.8272,-6.68242 c 2.68144,-3.32665 2.32691,-10.17974 -0.68231,-13.18895 -4.64131,-4.64132 -10.76004,-2.15808 -12.08501,4.90461 -1.66462,8.8732 7.4996,14.81959 12.76732,8.28434 z m 18.56862,6.71652 c -6.51834,-2.70498 -9.55824,-12.20753 -6.35656,-19.87024 3.72465,-8.91436 19.59859,-10.28515 23.36548,-2.01772 1.5942,3.49888 1.58269,3.52794 -1.39758,3.52794 -1.42575,0 -3.73644,-0.9 -5.13486,-2 -5.03172,-3.95795 -10.53273,-1.46221 -11.81243,5.35916 -1.33261,7.10346 4.19886,12.70138 10.41082,10.53588 4.28247,-1.49288 4.37195,-4.89504 0.12874,-4.89504 -2.53333,0 -3,-0.38889 -3,-2.5 0,-2.38889 0.26667,-2.5 6,-2.5 h 6 v 6.04889 6.04889 l -4.25,1.92915 c -5.08678,2.30898 -8.96889,2.40165 -13.95361,0.33309 z m 39.65227,0.0885 c -4.33641,-2.14014 -6.87308,-6.93745 -6.84678,-12.94854 0.04,-9.15163 4.93536,-14.5 13.27173,-14.5 6.89313,0 13.97381,8.27418 7.87639,9.20401 -1.36931,0.20882 -3.112,-0.5468 -4.45225,-1.93044 -4.89369,-5.05216 -10.30681,-1.37947 -10.28244,6.97643 0.017,5.82685 0.48528,6.92454 3.66895,8.6003 3.00162,1.57992 3.15173,1.53678 6.27085,-1.80224 2.21203,-2.36799 3.2646,-2.81309 5.32082,-2.25 2.47869,0.67877 2.51752,0.81045 1.17622,3.98937 -2.30235,5.45665 -9.90489,7.67094 -16.00349,4.66111 z m 281.9519,-0.0673 c -4.37795,-2.26208 -6.68627,-6.68134 -6.68627,-12.80076 0,-9.36721 4.76678,-14.58047 13.33176,-14.58047 4.90966,0 9.05835,2.21386 11.31841,6.03983 1.94566,3.29374 2.15818,12.38584 0.3708,15.86377 -3.04139,5.91802 -12.19166,8.65173 -18.3347,5.47763 z m 11.84944,-6.5789 c 2.72192,-3.14792 2.34447,-10.29876 -0.70455,-13.34777 -6.4602,-6.46021 -14.91954,1.92769 -11.11858,11.02467 2.35272,5.63084 8.00304,6.74106 11.82313,2.3231 z M 34.171427,364.77143 v -14 h 2.78104 c 2.44656,0 3.43881,1.11208 8.25,9.24631 l 5.46896,9.24632 0.28753,-9.24632 c 0.28237,-9.08065 0.33164,-9.24631 2.75,-9.24631 h 2.46247 v 14.06336 14.06336 l -3.24065,-0.31336 c -2.87506,-0.27801 -3.8058,-1.24138 -8.25,-8.53924 l -5.00935,-8.22587 -0.28893,8.47587 c -0.28158,8.26025 -0.35155,8.47588 -2.75,8.47588 h -2.46107 z m 27,0 v -14 h 3 3 v 14 14 h -3 -3 z m 16.90381,11.25 c -0.57568,-1.5125 -2.54771,-7.025 -4.3823,-12.25 -1.83458,-5.225 -3.65058,-10.2875 -4.03555,-11.25 -0.58471,-1.46191 -0.13711,-1.75 2.71894,-1.75 h 3.41888 l 2.89902,9.07133 c 1.59446,4.98923 3.21753,9.26818 3.60682,9.50878 0.38929,0.24059 2.04393,-3.72901 3.67698,-8.82133 2.87165,-8.95463 3.07427,-9.26929 6.16807,-9.57861 3.76653,-0.37659 3.93013,-1.63293 -1.96448,15.08563 l -4.48982,12.7342 h -3.28493 c -2.66316,0 -3.48306,-0.52053 -4.33163,-2.75 z m 20.09619,-11.25 v -14 h 10.000003 9.99999 v 3 3 h -7.49999 c -7.33333,0 -7.5,0.0556 -7.5,2.5 0,2.42857 0.2,2.5 7,2.5 6.79999,0 6.99999,0.0714 6.99999,2.5 0,2.42857 -0.2,2.5 -6.99999,2.5 h -7 v 3.5 3.5 h 8 c 7.86666,0 7.99999,0.0417 7.99999,2.5 v 2.5 H 108.67143 98.171427 Z m 24.999993,0 v -14 h 7.35078 c 4.04292,0 8.72543,0.47921 10.40556,1.0649 5.69669,1.98588 6.81243,10.20587 1.82853,13.47145 l -2.38337,1.56164 3.84134,5.70101 3.84133,5.701 -3.66748,0.3238 c -2.01712,0.17809 -3.81933,-0.13172 -4.00492,-0.68848 -0.98657,-2.95973 -7.54074,-10.13532 -9.25758,-10.13532 -1.70205,0 -1.95419,0.70964 -1.95419,5.5 0,5.44444 -0.0303,5.5 -3,5.5 h -3 z m 15.89481,-3.37325 c 2.26253,-2.72619 0.20791,-4.62675 -5.0018,-4.62675 -4.77001,0 -4.89301,0.0754 -4.89301,3 0,2.87646 0.18027,3 4.37756,3 2.49163,0 4.86855,-0.59162 5.51725,-1.37325 z m 37.10519,3.37325 v -14 h 3 3 v 14 14 h -3 -3 z m 11,-0.12849 v -14.12848 l 7.98774,0.4624 c 5.99286,0.34692 8.52476,0.94093 10.13802,2.37849 4.63265,4.1281 6.16203,12.39821 3.47987,18.81751 -2.21127,5.29232 -4.94869,6.59857 -13.82814,6.59857 h -7.77749 z m 15.4433,6.90598 c 0.85618,-1.22237 1.5567,-4.04725 1.5567,-6.27749 0,-5.85483 -2.19602,-8.5 -7.0567,-8.5 h -3.9433 v 8.5 8.5 h 3.9433 c 2.94127,0 4.33886,-0.56476 5.5,-2.22251 z m 9.55125,6.47251 c -0.003,-0.4125 2.32145,-6.73546 5.16545,-14.05102 5.11948,-13.16871 5.20045,-13.29802 8.14057,-13 2.79267,0.28308 3.25982,1.01616 7.83864,12.30102 6.8034,16.76749 6.59834,15.5 2.50763,15.5 -3.06239,0 -3.56832,-0.36601 -4.14684,-3 -0.63422,-2.88761 -0.86394,-3 -6.13147,-3 -5.18156,0 -5.52818,0.15953 -6.51837,3 -0.83803,2.40396 -1.62241,3 -3.94799,3 -1.59619,0 -2.90462,-0.3375 -2.90762,-0.75 z m 15.96035,-11.5 c -0.0248,-0.6875 -0.6481,-2.6 -1.38509,-4.25 l -1.33998,-3 -1.61491,3.71788 c -2.09946,4.8334 -2.11431,4.78212 1.38508,4.78212 1.75739,0 2.98132,-0.51775 2.9549,-1.25 z m 14.0451,-1.75 v -14 h 6.53212 c 12.52848,0 17.10031,4.57994 16.25382,16.28264 -0.37827,5.2295 -0.85165,6.38688 -3.62628,8.86601 -2.94414,2.63059 -3.80937,2.85135 -11.17544,2.85135 h -7.98422 z m 15.4433,6.77749 c 0.85618,-1.22237 1.5567,-4.04725 1.5567,-6.27749 0,-5.85483 -2.19602,-8.5 -7.0567,-8.5 h -3.9433 v 8.5 8.5 h 3.9433 c 2.94127,0 4.33886,-0.56476 5.5,-2.22251 z m 11.5567,-6.77749 v -14 h 10.5 10.5 v 3 3 h -7.5 c -7.33333,0 -7.5,0.0556 -7.5,2.5 0,2.42857 0.2,2.5 7,2.5 6.8,0 7,0.0714 7,2.5 0,2.42857 -0.2,2.5 -7,2.5 h -7 v 3.5 3.5 h 8 c 7.86667,0 8,0.0417 8,2.5 v 2.5 h -11 -11 z m 43.00001,3 v -11 h -4.5 c -4.33333,0 -4.5,-0.11111 -4.5,-3 v -3 h 11.5 11.5 v 3 c 0,2.88889 -0.16667,3 -4.5,3 h -4.5 v 11 11 h -2.5 -2.5 z m 17,-3 v -14 h 10 10 v 3 3 h -7 c -6.8,0 -7,0.0714 -7,2.5 0,2.41026 0.23333,2.5 6.5,2.5 6.26667,0 6.5,0.0897 6.5,2.5 0,2.41026 -0.23333,2.5 -6.5,2.5 h -6.5 v 3.5 3.5 h 7.5 c 7.33333,0 7.5,0.0556 7.5,2.5 v 2.5 h -10.5 -10.5 z m 53,0 v -14 h 2.75678 c 2.39911,0 3.40461,1.09904 7.75,8.47092 l 4.99322,8.47093 0.28893,-8.47093 0.28894,-8.47092 h 2.96106 2.96107 v 14.06336 14.06336 l -3.24066,-0.31336 c -2.87505,-0.27801 -3.8058,-1.24138 -8.25,-8.53924 l -5.00934,-8.22587 -0.28893,8.47587 c -0.28159,8.26025 -0.35155,8.47588 -2.75,8.47588 h -2.46107 z m 57,0.5 v -13.5 h 3 3 v 11 11 h 7 c 6.8,0 7,0.0714 7,2.5 v 2.5 h -10 -10 z m 82.99999,-0.5 v -14 h 3 3 v 14 14 h -3 -3 z m 37.12375,8.75 c 1.15201,-2.8875 3.58144,-9.075 5.39872,-13.75 3.03113,-7.79763 3.54866,-8.52511 6.26319,-8.80384 1.73605,-0.17826 3.18577,0.23505 3.50761,1 1.9663,4.67349 8.07827,19.938 9.23085,23.05384 l 1.38716,3.75 h -3.35781 c -2.83184,0 -3.52164,-0.46993 -4.40363,-3 -0.97903,-2.80847 -1.37388,-3 -6.18468,-3 -4.79157,0 -5.21542,0.20276 -6.27126,3 -0.93982,2.48986 -1.68777,3 -4.39855,3 h -3.26617 z m 14.87625,-6.28212 c 0,-0.29266 -0.70619,-2.20516 -1.5693,-4.25 l -1.5693,-3.71788 -1.4307,3.36481 c -1.98565,4.66997 -1.84348,5.13519 1.5693,5.13519 1.65,0 3,-0.23945 3,-0.53212 z m 23,-2.46788 v -14 h 9.5 9.5 v 3 3 h -6.5 -6.5 v 3 c 0,2.9697 0.0556,3 5.5,3 5.2,0 5.5,0.13636 5.5,2.5 0,2.36364 -0.3,2.5 -5.5,2.5 h -5.5 v 5.5 c 0,5.44444 -0.0303,5.5 -3,5.5 h -3 z m 23,0 v -14 h 10.5 10.5 v 3 3 h -7.5 c -7.33333,0 -7.5,0.0556 -7.5,2.5 0,2.42857 0.2,2.5 7,2.5 6.8,0 7,0.0714 7,2.5 0,2.42857 -0.2,2.5 -7,2.5 h -7 v 3.5 3.5 h 7.5 c 7.33333,0 7.5,0.0556 7.5,2.5 v 2.5 h -10.5 -10.5 z m 25,0 v -14 l 6.75,0.002 c 4.4224,10e-4 7.9569,0.60447 10.25,1.75 6.20854,3.10152 8.76933,12.07808 5.60563,19.64988 -2.24412,5.37049 -4.90979,6.59812 -14.32814,6.59812 h -8.27749 z m 16.09184,7.38934 c 0.7434,-0.89575 1.33673,-3.95369 1.33673,-6.88934 0,-6.75926 -1.444,-8.5 -7.05101,-8.5 h -4.37756 v 8.5 8.5 h 4.37756 c 2.80488,0 4.85778,-0.57864 5.71428,-1.61066 z m 11.90816,-7.38934 v -14 h 10.5 10.5 v 3 3 h -7.5 c -7.33333,0 -7.5,0.0556 -7.5,2.5 0,2.42857 0.2,2.5 7,2.5 6.8,0 7,0.0714 7,2.5 0,2.42857 -0.2,2.5 -7,2.5 h -7 v 3.5 3.5 h 7.5 c 7.33333,0 7.5,0.0556 7.5,2.5 v 2.5 h -10.5 -10.5 z m 25,-0.11928 v -14.11928 l 9.44334,0.41302 c 11.21164,0.49036 13.55666,1.86409 13.55666,7.94157 0,3.61962 -2.84507,7.88397 -5.25999,7.88397 -0.48558,0 -0.136,0.74686 0.77683,1.6597 0.91283,0.91283 2.81441,3.48888 4.22573,5.72455 l 2.56603,4.06487 1.33588,-2.97456 c 0.73472,-1.63601 3.18339,-7.83736 5.44147,-13.78077 4.05347,-10.669 4.14405,-10.80233 7.133,-10.5 2.89078,0.29239 3.27,0.91185 8.40422,13.72832 2.95726,7.38216 5.37683,13.56966 5.37683,13.75 0,0.18034 -1.53925,0.32789 -3.42054,0.32789 -2.98752,0 -3.50397,-0.37979 -4.07946,-3 -0.63422,-2.88761 -0.86394,-3 -6.13147,-3 -5.18156,0 -5.52818,0.15953 -6.51837,3 -1.02293,2.93437 -1.1937,3 -7.80641,3 h -6.76059 l -3.65179,-5.5 c -2.79939,-4.21618 -4.23297,-5.5 -6.14158,-5.5 -2.35126,0 -2.48979,0.30602 -2.48979,5.5 0,5.44444 -0.0303,5.5 -3,5.5 h -3 z m 42,2.44028 c 0,-1.52008 -2.45038,-7.321 -3.09248,-7.321 -0.37989,0 -0.96257,1.08319 -1.29485,2.4071 -0.33228,1.3239 -0.8792,3.1239 -1.21539,4 -0.47836,1.24657 0.0643,1.5929 2.49573,1.5929 1.70885,0 3.10699,-0.30555 3.10699,-0.679 z m -25.5,-7.321 c 0,-2.31082 -0.39727,-2.52287 -5.25,-2.80226 l -5.25,-0.30226 v 3.10452 3.10452 l 5.25,-0.30226 c 4.85273,-0.27939 5.25,-0.49144 5.25,-2.80226 z m 39.5,5.5 v -13.5 h 3 3 v 11 11 h 6.5 c 6.26667,0 6.5,0.0897 6.5,2.5 0,2.49123 -0.0333,2.5 -9.5,2.5 h -9.5 z m 33,-0.5 v -14 h 6.53212 c 12.69617,0 17.11,4.44608 16.24775,16.36648 -0.37163,5.1378 -0.8557,6.31208 -3.62021,8.78217 -2.94414,2.63059 -3.80937,2.85135 -11.17544,2.85135 h -7.98422 z m 15.17126,7.34501 c 1.30866,-1.18432 1.82874,-3.08157 1.82874,-6.67126 0,-6.35632 -1.91165,-8.67375 -7.15499,-8.67375 h -3.84501 v 8.5 8.5 h 3.67126 c 2.01919,0 4.49419,-0.74474 5.5,-1.65499 z m 52.82874,-7.34501 v -14 h 6.35078 c 11.03882,0 14.64922,2.29783 14.64922,9.32347 0,5.4705 -2.68555,7.90298 -9.33387,8.45431 l -5.66613,0.46988 v 4.87617 c 0,4.7513 -0.0768,4.87617 -3,4.87617 h -3 z m 13.41761,-2.3161 c 0.98993,-0.72385 1.63456,-2.18635 1.4325,-3.25 -0.28243,-1.48678 -1.34797,-2.00499 -4.60874,-2.2414 l -4.24137,-0.3075 v 3.5575 c 0,3.23232 0.25675,3.5575 2.80887,3.5575 1.54488,0 3.61881,-0.59224 4.60874,-1.3161 z m 6.58239,15.79394 c 0,-0.28718 1.96701,-5.57468 4.37113,-11.75 2.40412,-6.17531 4.68445,-12.24034 5.06739,-13.47784 0.5319,-1.71886 1.44755,-2.2481 3.87887,-2.24196 3.15132,0.008 3.23423,0.1384 8.43261,13.26692 2.8875,7.29238 5.25,13.58876 5.25,13.99196 0,0.40319 -1.37341,0.73308 -3.05202,0.73308 -2.49206,0 -3.24389,-0.55041 -4.09782,-3 -0.98475,-2.82484 -1.35551,-3 -6.35016,-3 -4.99465,0 -5.36541,0.17516 -6.35016,3 -0.85393,2.44959 -1.60576,3 -4.09782,3 -1.67861,0 -3.05202,-0.23497 -3.05202,-0.52216 z m 15.57888,-13.72784 c -0.72549,-1.7875 -1.52475,-3.91664 -1.77612,-4.73143 -0.25325,-0.82085 -1.17592,0.62834 -2.0692,3.25 l -1.61216,4.73143 h 3.38827 3.38828 z m 14.42112,0.25 v -14 h 7.35078 c 8.92719,0 13.00557,1.29192 14.51138,4.59683 1.79659,3.94307 1.35359,6.39705 -1.67017,9.25196 l -2.80802,2.65121 3.82256,5.44161 3.82255,5.4416 1.23546,-3.32177 c 0.6795,-1.82698 3.04599,-7.87571 5.25886,-13.44161 3.77395,-9.49242 4.21127,-10.13835 7.0537,-10.41855 3.02143,-0.29784 3.04649,-0.25758 8.55542,13.75 l 5.52511,14.04872 h -3.20749 c -2.62108,0 -3.43469,-0.54848 -4.45014,-3 -1.15886,-2.79773 -1.59869,-3 -6.5235,-3 -4.96854,0 -5.3427,0.17742 -6.32666,3 -1.01747,2.91872 -1.22205,3 -7.55114,3 -5.84719,0 -6.6871,-0.25924 -8.30202,-2.56245 -4.28444,-6.11053 -6.59714,-8.43755 -8.38557,-8.43755 -1.64983,0 -1.91111,0.75194 -1.91111,5.5 0,5.44444 -0.0303,5.5 -3,5.5 h -3 z m 40.32683,-1.5542 c -0.85347,-2.50481 -1.65298,-4.41731 -1.77668,-4.25 -0.1237,0.16731 -0.96945,2.2167 -1.87943,4.5542 l -1.65453,4.25 h 3.43121 3.4312 z m -24.3374,-1.93307 c 2.32397,-2.80021 0.44246,-4.51273 -4.95805,-4.51273 -4.92376,0 -5.03138,0.0642 -5.03138,3 0,2.87646 0.18027,3 4.37756,3 2.65455,0 4.86338,-0.58539 5.61187,-1.48727 z m 39.01057,3.48727 v -14 h 2.8796 c 2.55971,0 3.50397,1.02677 8.5,9.24276 l 5.6204,9.24275 v -9.24275 c 0,-9.19228 0.0137,-9.24276 2.5,-9.24276 h 2.5 v 14 14 h -2.84274 c -2.4756,0 -3.5088,-1.06288 -8,-8.22975 l -5.15726,-8.22974 v 8.22974 8.22975 h -3 -3 z m 25.00602,13.75 c 0.003,-0.1375 2.38719,-6.325 5.29752,-13.75 5.06831,-12.93056 5.41916,-13.51266 8.31786,-13.80022 2.91448,-0.28913 3.14098,-0.0119 6.12918,7.5 1.7066,4.29012 4.2274,10.61272 5.6018,14.05022 l 2.499,6.25 h -3.3279 c -2.7985,0 -3.4942,-0.47716 -4.3737,-3 -0.9896,-2.83881 -1.3388,-3 -6.49998,-3 -5.1611,0 -5.51034,0.16119 -6.49996,3 -0.85393,2.44959 -1.60576,3 -4.09782,3 -1.67861,0 -3.04931,-0.1125 -3.046,-0.25 z M 1000.4378,363.04 c -0.89318,-2.62166 -1.81588,-4.07085 -2.06918,-3.25 -0.25133,0.81479 -1.05059,2.94393 -1.77608,4.73143 l -1.31907,3.25 h 3.38825 3.38828 z M 472.47753,346.77143 c 0.94842,-2.51264 1.6777,-3 4.4892,-3 h 3.35682 l -2.32606,2.94467 c -1.27933,1.61957 -3.29947,2.96957 -4.4892,3 -1.99214,0.051 -2.07362,-0.18182 -1.03076,-2.94467 z m 524.19389,0 c 1.20145,-2.32335 2.229,-3 4.55558,-3 h 3.0043 l -2.218,3 c -1.3642,1.84521 -3.11778,3 -4.55562,3 -2.27544,0 -2.29635,-0.0798 -0.78626,-3 z M 113.17143,333.09721 c -13.760213,-1.39233 -27.743633,-4.4824 -40.218143,-8.88746 -30.1971,-10.66334 -50.9952,-32.98877 -60.14458,-64.56135 -5.58594,-19.27591 -5.63728,-20.541 -5.63728,-138.90724 V 11.771429 h 31.96083 31.96082 l 0.36143,104.250001 c 0.3526,101.70148 0.41276,104.47002 2.46083,113.25 6.98007,29.92317 19.33623,44.97904 42.756083,52.0979 8.49526,2.58228 31.50173,2.58281 40,9.2e-4 23.29592,-7.07761 35.70447,-22.62533 42.77694,-53.59882 2.13796,-9.36309 2.17384,-10.98801 2.48972,-112.75 l 0.3205,-103.250001 h 226.95643 226.95641 v 25 25 h -126.5 -126.49999 v 133.500001 133.5 h -32 -32 v -133.5 -133.500001 h -36.5 -36.50001 v 81.948781 c 0,87.38002 -0.37344,95.67647 -5.08763,113.02968 -12.21454,44.96245 -44.37852,69.78426 -98.45289,75.97877 -8.25816,0.94602 -41.3178,1.19236 -49.45947,0.36855 z m 304,-131.32578 V 74.771429 h 118.99999 119 v 25.000004 24.999997 h -87 -86.99999 v 102 102 h -32 -32 z m 77.99999,32.5 v -94.5 h 80 80 v 25 25 h -50 -50 v 69.5 69.5 h -30 -30 z m 187,-1 v -94.5 l 36.25,0.0261 c 40.0321,0.0288 64.25981,1.15691 71.58859,3.33333 17.67077,5.24765 31.40114,19.83462 35.65584,37.8803 1.99579,8.46486 1.95377,27.23322 -0.0786,35.11593 -4.2592,16.51945 -16.55666,30.39325 -32.51572,36.68372 -8.52942,3.36198 -24.0227,4.91953 -49.15009,4.9411 l -22.75002,0.0195 v 35.5 35.5 h -19.5 -19.5 z m 76,-9.50884 c 8.2844,-0.74283 11.65149,-1.5292 15.95704,-3.72671 18.63538,-9.51131 18.3715,-35.34995 -0.45715,-44.76445 l -5.99989,-3 -23.25,-0.34356 -23.25,-0.34357 v 26.59357 26.59356 l 13.25,-0.0337 c 7.2875,-0.0185 17.975,-0.45734 23.75,-0.97516 z m 80,9.50884 v -94.5 l 43.25,0.002 c 71.78481,0.004 84.47929,2.08746 97.81785,16.05397 11.94398,12.50628 16.83825,32.98927 12.39087,51.85697 -4.25459,18.04976 -19.01328,31.73995 -39.32559,36.47849 -3.4851,0.81302 -6.51314,1.65482 -6.72899,1.87066 -0.21584,0.21585 2.82098,2.58808 6.74849,5.27163 9.16282,6.26068 17.62421,16.22763 29.24975,34.45423 20.1153,31.53736 26.5976,41.87906 26.5976,42.43348 0,0.31821 -10.27535,0.57857 -22.83414,0.57857 h -22.83417 l -18.68119,-27.75 c -23.96984,-35.60602 -28.85871,-41.93778 -35.41416,-45.86622 -6.12803,-3.6723 -9.57578,-4.35801 -21.98632,-4.37277 l -9.25,-0.011 v 39 39 h -19.5 -19.5 z m 100.40253,-16.49204 c 2.1464,-0.65241 5.87627,-3.0586 8.2886,-5.34708 9.22087,-8.74745 9.33494,-24.58061 0.2409,-33.43621 -5.76557,-5.6144 -9.84539,-6.22467 -41.61353,-6.22467 h -28.3185 v 23.62705 23.62705 l 28.75,-0.52997 c 17.77053,-0.32757 30.24036,-0.98297 32.65253,-1.71617 z"
       id="path845"
       clip-path="url(#clipPath2278)"
       transform="matrix(0.39024814,0,0,0.39024785,-1.4103804,41.276226)"
       inkscape:export-filename="X:\repos\pradoplucas\certsProject\static\assets\images\logo\image3.png"
       inkscape:export-xdpi="96"
       inkscape:export-ydpi="96" />
  </g>
</svg>
